<svg width="24" height="25" viewBox="0 0 24 25" fill="none" xmlns="http://www.w3.org/2000/svg">
<path d="M12.0944 18.5403C12.3509 18.5403 12.5641 18.454 12.7341 18.2815C12.9041 18.109 12.9891 17.8953 12.9891 17.6403V12.2403C12.9891 11.9853 12.9024 11.7715 12.7289 11.599C12.5554 11.4265 12.3404 11.3403 12.0839 11.3403C11.8274 11.3403 11.6142 11.4265 11.4442 11.599C11.2742 11.7715 11.1892 11.9853 11.1892 12.2403V17.6403C11.1892 17.8953 11.276 18.109 11.4495 18.2815C11.623 18.454 11.838 18.5403 12.0944 18.5403ZM11.9986 9.12028C12.279 9.12028 12.5141 9.02828 12.7041 8.84428C12.8941 8.66028 12.9891 8.43228 12.9891 8.16028C12.9891 7.87128 12.8943 7.62903 12.7047 7.43353C12.515 7.23803 12.28 7.14028 11.9997 7.14028C11.7194 7.14028 11.4842 7.23803 11.2942 7.43353C11.1042 7.62903 11.0092 7.87128 11.0092 8.16028C11.0092 8.43228 11.1041 8.66028 11.2937 8.84428C11.4833 9.02828 11.7183 9.12028 11.9986 9.12028ZM12.0072 24.5403C10.3526 24.5403 8.7977 24.2253 7.34247 23.5953C5.88726 22.9653 4.61468 22.1053 3.52476 21.0153C2.43483 19.9253 1.57489 18.6519 0.944935 17.1951C0.314978 15.7383 0 14.1817 0 12.5253C0 10.8689 0.314978 9.31231 0.944935 7.85551C1.57489 6.39869 2.43483 5.13028 3.52476 4.05028C4.61468 2.97028 5.88801 2.11528 7.34473 1.48528C8.80142 0.855283 10.3579 0.540283 12.0142 0.540283C13.6704 0.540283 15.2269 0.855283 16.6836 1.48528C18.1403 2.11528 19.4087 2.97028 20.4886 4.05028C21.5685 5.13028 22.4235 6.40028 23.0534 7.86028C23.6834 9.32028 23.9984 10.8776 23.9984 12.5323C23.9984 14.187 23.6834 15.742 23.0534 17.1973C22.4235 18.6526 21.5685 19.9234 20.4886 21.0098C19.4087 22.0961 18.1388 22.9561 16.6789 23.5898C15.219 24.2234 13.6617 24.5403 12.0072 24.5403ZM12.0142 22.7403C14.844 22.7403 17.2488 21.7453 19.2287 19.7553C21.2085 17.7653 22.1985 15.3553 22.1985 12.5253C22.1985 9.69528 21.2104 7.29028 19.2343 5.31028C17.2582 3.33028 14.8465 2.34028 11.9992 2.34028C9.17937 2.34028 6.77453 3.3284 4.78467 5.30464C2.79481 7.2809 1.79988 9.69278 1.79988 12.5403C1.79988 15.3603 2.79481 17.7653 4.78467 19.7553C6.77453 21.7453 9.18437 22.7403 12.0142 22.7403Z" fill="#FFC40C"/>
</svg>
