<svg width="38" height="38" viewBox="0 0 38 38" fill="none" xmlns="http://www.w3.org/2000/svg">
<path d="M9.66732 0.333412C4.51266 0.333412 0.333984 4.51209 0.333985 9.66675C0.333985 14.8214 4.51267 19.0001 9.66733 19.0001L19.0007 19.0001L19.0007 9.66674C19.0007 4.51208 14.822 0.333412 9.66732 0.333412Z" fill="#756BB0"/>
<path d="M28.3327 37.6666C33.4873 37.6666 37.666 33.488 37.666 28.3333C37.666 23.1786 33.4873 18.9999 28.3327 18.9999L18.9993 18.9999L18.9993 28.3333C18.9993 33.488 23.178 37.6666 28.3327 37.6666Z" fill="#FFC40C"/>
<path d="M9.66732 37.6666C4.51266 37.6666 0.333985 33.4879 0.333986 28.3333C0.333986 23.1786 4.51267 18.9999 9.66733 18.9999L19.0007 18.9999L19.0007 28.3333C19.0007 33.4879 14.822 37.6666 9.66732 37.6666Z" fill="#F58466"/>
<path d="M28.3327 0.333251C33.4873 0.333251 37.666 4.51193 37.666 9.66659C37.666 14.8212 33.4873 18.9999 28.3327 18.9999L18.9993 18.9999L18.9993 9.66658C18.9993 4.51192 23.178 0.33325 28.3327 0.333251Z" fill="#B8DEF5"/>
</svg>
