<svg width="27" height="30" viewBox="0 0 27 30" fill="none" xmlns="http://www.w3.org/2000/svg">
<path d="M10.6998 29.9842C7.63083 29.4036 5.08031 27.8968 3.04819 25.4638C1.01606 23.0307 0 20.2106 0 17.0035C0 15.0405 0.414719 13.1881 1.24416 11.4462C2.0736 9.70443 3.24863 8.22526 4.76927 7.00875C4.99045 6.84287 5.25311 6.76684 5.55724 6.78066C5.86136 6.79448 6.12402 6.91199 6.3452 7.13317C6.62168 7.40965 6.7461 7.7276 6.71845 8.08702C6.6908 8.44645 6.51109 8.7644 6.17932 9.04088C5.0181 10.0086 4.11263 11.1905 3.46291 12.5867C2.81318 13.9829 2.48832 15.4552 2.48832 17.0035C2.48832 19.6024 3.29011 21.8626 4.89369 23.7841C6.49727 25.7057 8.52939 26.9429 10.9901 27.4959C11.2942 27.5512 11.5499 27.7032 11.7573 27.9521C11.9646 28.2009 12.0683 28.4774 12.0683 28.7815C12.0683 29.1686 11.9301 29.4796 11.6536 29.7146C11.3771 29.9496 11.0592 30.0395 10.6998 29.9842ZM15.9252 29.9842C15.5658 30.0395 15.2478 29.9496 14.9714 29.7146C14.6949 29.4796 14.5566 29.1686 14.5566 28.7815C14.5566 28.4774 14.6603 28.2009 14.8677 27.9521C15.075 27.7032 15.3308 27.5512 15.6349 27.4959C18.1232 26.9429 20.1554 25.7057 21.7313 23.7841C23.3072 21.8626 24.0952 19.6024 24.0952 17.0035C24.0952 13.9899 23.0515 11.4393 20.9641 9.35192C18.8766 7.2645 16.3261 6.22079 13.3125 6.22079H12.483L14.1005 7.83819C14.3216 8.05938 14.4322 8.34968 14.4322 8.7091C14.4322 9.06853 14.3216 9.35883 14.1005 9.58001C13.8516 9.82885 13.5475 9.95326 13.1881 9.95326C12.8286 9.95326 12.5383 9.82885 12.3172 9.58001L8.54322 5.84754C8.40498 5.7093 8.30821 5.57106 8.25291 5.43282C8.19762 5.29458 8.16997 5.14252 8.16997 4.97663C8.16997 4.81074 8.19762 4.65868 8.25291 4.52044C8.30821 4.3822 8.40498 4.24396 8.54322 4.10572L12.3172 0.331775C12.5383 0.110592 12.8286 0 13.1881 0C13.5475 0 13.8516 0.110592 14.1005 0.331775C14.3216 0.580607 14.4322 0.884734 14.4322 1.24416C14.4322 1.60358 14.3216 1.89388 14.1005 2.11507L12.483 3.73247H13.3125C17.0173 3.73247 20.1554 5.02501 22.7266 7.6101C25.2979 10.1952 26.5835 13.3263 26.5835 17.0035C26.5835 20.2106 25.5744 23.0307 23.5561 25.4638C21.5378 27.8968 18.9941 29.4036 15.9252 29.9842Z" fill="#FFC40C"/>
</svg>
