<svg width="24" height="25" viewBox="0 0 24 25" fill="none" xmlns="http://www.w3.org/2000/svg">
<path d="M11.9992 14.471L2.34467 24.1262C2.06882 24.402 1.74701 24.54 1.37922 24.54C1.01142 24.54 0.689608 24.402 0.413765 24.1262C0.137922 23.8503 0 23.5285 0 23.1607C0 22.7929 0.137922 22.471 0.413765 22.1952L10.0683 12.54L0.413765 2.88481C0.137922 2.60894 0 2.2871 0 1.91929C0 1.55147 0.137922 1.22963 0.413765 0.953771C0.689608 0.677909 1.01142 0.539978 1.37922 0.539978C1.74701 0.539978 2.06882 0.677909 2.34467 0.953771L11.9992 10.6089L21.6537 0.953771C21.9295 0.677909 22.2513 0.539978 22.6191 0.539978C22.9869 0.539978 23.3087 0.677909 23.5846 0.953771C23.8604 1.22963 23.9984 1.55147 23.9984 1.91929C23.9984 2.2871 23.8604 2.60894 23.5846 2.88481L13.9301 12.54L23.5846 22.1952C23.8604 22.471 23.9984 22.7929 23.9984 23.1607C23.9984 23.5285 23.8604 23.8503 23.5846 24.1262C23.3087 24.402 22.9869 24.54 22.6191 24.54C22.2513 24.54 21.9295 24.402 21.6537 24.1262L11.9992 14.471Z" fill="#FFC40C"/>
</svg>
