<svg width="152" height="34" viewBox="0 0 152 34" fill="none" xmlns="http://www.w3.org/2000/svg">
<path d="M44.7227 31.5694V1.49054H48.7584L66.5656 26.1122L65.8999 26.499C65.789 25.7828 65.6919 25.0093 65.6087 24.1786C65.5254 23.3192 65.4422 22.4168 65.359 21.4715C65.3036 20.4975 65.2481 19.4806 65.1926 18.4206C65.1649 17.3321 65.1371 16.2005 65.1094 15.026C65.0817 13.8515 65.0678 12.634 65.0678 11.3736V1.49054H69.5612V31.5694H65.4422L47.9263 7.85007L48.3839 7.24849C48.5226 8.99593 48.6336 10.4856 48.7168 11.7174C48.8277 12.9205 48.911 13.9518 48.9664 14.8112C49.0496 15.6419 49.1051 16.3294 49.1328 16.8737C49.1606 17.3894 49.1745 17.8191 49.1745 18.1628C49.2022 18.5066 49.2161 18.8074 49.2161 19.0652V31.5694H44.7227Z" fill="white"/>
<path d="M86.951 31.8272C84.7043 31.8272 82.6934 31.3259 80.9182 30.3233C79.143 29.292 77.7423 27.8883 76.716 26.1122C75.7175 24.3075 75.2182 22.2736 75.2182 20.0105V1.44757H79.7117V19.6238C79.7117 21.0848 80.0445 22.4025 80.7102 23.577C81.3759 24.7229 82.2496 25.6396 83.3313 26.3271C84.4408 27.0146 85.6474 27.3584 86.951 27.3584C88.3379 27.3584 89.586 27.0146 90.6955 26.3271C91.8327 25.6396 92.7342 24.7229 93.3999 23.577C94.0656 22.4025 94.3984 21.0848 94.3984 19.6238V1.44757H98.6838V20.0105C98.6838 22.2736 98.1707 24.3075 97.1444 26.1122C96.1459 27.8883 94.759 29.292 92.9838 30.3233C91.2087 31.3259 89.1977 31.8272 86.951 31.8272Z" fill="white"/>
<path d="M104.352 31.5694V1.49054H108.762L119.372 19.323L117.25 19.28L127.984 1.49054H132.144V31.5694H127.651V19.2371C127.651 16.6589 127.707 14.3385 127.817 12.276C127.956 10.2134 128.178 8.16518 128.483 6.13128L129.066 7.72116L119.538 22.9325H116.792L107.556 7.89304L108.013 6.13128C108.318 8.0506 108.526 10.0272 108.637 12.0611C108.776 14.0664 108.845 16.4584 108.845 19.2371V31.5694H104.352Z" fill="white"/>
<path d="M137.148 31.5694V27.2724H141.849V5.78752H137.148V1.49054H151.044V5.78752H146.343V27.2724H151.044V31.5694H137.148Z" fill="white"/>
<path d="M8.49231 0.000121944C3.80214 0.000122014 5.67496e-08 3.80255 1.26748e-07 8.49272C1.96752e-07 13.1832 3.8024 16.9859 8.4929 16.9859L16.9846 16.9859L16.9846 8.49242C16.9846 3.80225 13.1825 0.000121874 8.49231 0.000121944Z" fill="#756BB0"/>
<path d="M25.4764 33.9716C30.1666 33.9716 33.9687 30.1691 33.9687 25.479C33.9687 20.7885 30.1663 16.9858 25.4758 16.9858L16.9841 16.9858L16.9841 25.4793C16.9841 30.1694 20.7863 33.9716 25.4764 33.9716Z" fill="#FFC40C"/>
<path d="M8.49231 33.9716C3.80214 33.9716 4.75531e-07 30.1691 1.06208e-06 25.479C1.64868e-06 20.7885 3.8024 16.9858 8.4929 16.9858L16.9846 16.9858L16.9846 25.4793C16.9846 30.1694 13.1825 33.9716 8.49231 33.9716Z" fill="#F58466"/>
<path d="M25.4764 -1.06209e-06C30.1666 -4.75516e-07 33.9687 3.80243 33.9687 8.4926C33.9687 13.1831 30.1663 16.9858 25.4758 16.9858L16.9841 16.9858L16.9841 8.4923C16.9841 3.80213 20.7863 -1.64867e-06 25.4764 -1.06209e-06Z" fill="#B8DEF5"/>
</svg>
